<?xml version="1.0" encoding="UTF-8" standalone="no"?>
<!DOCTYPE svg PUBLIC "-//W3C//DTD SVG 1.1//EN" "http://www.w3.org/Graphics/SVG/1.1/DTD/svg11.dtd">
<svg width="100%" height="100%" viewBox="0 0 305 62" version="1.1" xmlns="http://www.w3.org/2000/svg" xmlns:xlink="http://www.w3.org/1999/xlink" xml:space="preserve" xmlns:serif="http://www.serif.com/" style="fill-rule:evenodd;clip-rule:evenodd;stroke-linejoin:round;stroke-miterlimit:2;">
    <g transform="matrix(1,0,0,1,-2.80329,0)">
        <g transform="matrix(0.0610236,0,0,0.0610236,0,0)">
            <path d="M1792,448C1744,672 1744,768 1696,832C1584,896 1584,784 1600,736C1632,512 1600,432 1408,432C1312,432 1264,432 1184,528L1248,224L1056,224L928,992L1104,992C1152,784 1120,592 1312,592C1408,592 1440,624 1424,736C1392,896 1376,1008 1584,992C1648,992 1712,880 1712,896L1696,992L1872,992L1968,448L1792,448ZM720,704C720,832 608,816 480,816C256,816 256,816 288,608C320,416 320,400 544,400C704,416 768,384 752,496L960,496C1024,192 880,208 624,208C208,224 128,192 80,624C0,1024 32,1008 496,1008C768,1008 896,1008 928,704L720,704ZM3040,432C2848,448 2704,432 2672,624C2640,816 2800,784 2944,784C3056,784 3120,768 3120,832C3104,880 3072,880 2960,880C2848,880 2816,864 2816,816L2640,816C2608,1024 2752,1008 2928,1008C3200,1008 3280,976 3296,816C3328,704 3280,656 3136,656C2912,640 2848,672 2864,608C2864,576 2896,560 3008,560C3056,560 3136,544 3136,608L3312,608C3344,416 3184,432 3040,432ZM2416,432C2304,432 2256,448 2176,528L2192,448L2032,448L1936,992L2112,992C2176,736 2128,592 2336,592C2512,592 2432,656 2384,992L2576,992C2624,640 2720,432 2416,432ZM4720,592L5008,592L5040,448L4752,448L4768,320L4592,320L4560,448L4480,448L4448,592L4544,592C4512,880 4400,1008 4704,1008C4912,1008 4960,960 5008,768L4832,768C4832,832 4816,864 4752,864C4640,864 4704,800 4720,592ZM4544,352L4560,208C4336,192 4208,208 4176,448L4016,448C4064,480 4080,544 4080,592L4160,592L4080,992L4256,992L4336,592L4416,592L4448,448L4352,448C4384,336 4416,352 4544,352ZM3744,432C3456,432 3392,464 3344,720C3296,976 3344,1008 3632,1008C3920,1008 3984,976 4032,720C4080,448 3968,432 3744,432ZM3840,720C3824,848 3792,864 3664,864C3536,864 3504,848 3520,736C3552,608 3568,592 3712,592C3824,592 3872,592 3840,720ZM3200,336C3072,320 2944,256 2832,192C2592,64 2368,32 2208,112C2320,128 2432,160 2560,240C2800,368 3008,384 3200,336Z" style="fill:rgb(0,85,57);"/>
        </g>
        <g transform="matrix(0.0610236,0,0,0.0610236,0,0)">
            <path d="M1792,384L1984,384C2016,240 2096,160 2208,112C1968,80 1856,160 1792,384ZM3600,0C3536,176 3376,288 3200,336C3488,384 3712,304 3840,112L3600,0Z" style="fill:rgb(0,152,71);"/>
        </g>
    </g>
</svg>
